<svg id="rounded-pause-button" xmlns="http://www.w3.org/2000/svg" width="36" height="35.859" viewBox="0 0 36 35.859">
  <g id="pause-circle-outline">
    <path id="Path_10" data-name="Path 10" d="M18,0A17.93,17.93,0,1,0,36,17.93,18.018,18.018,0,0,0,18,0Zm0,32.273A14.344,14.344,0,1,1,32.4,17.93,14.414,14.414,0,0,1,18,32.273Z" fill="#fff"/>
    <path id="Path_11" data-name="Path 11" d="M19.982,14.438,13.742,9.9a.752.752,0,0,0-1.2.607v9.069a.75.75,0,0,0,.411.671.758.758,0,0,0,.342.081.748.748,0,0,0,.442-.146l6.24-4.532a.746.746,0,0,0,0-1.214Z" transform="translate(2.347 2.978)" fill="#fff"/>
  </g>
</svg>
